<svg width="315" height="38" viewBox="0 0 315 38" fill="none" xmlns="http://www.w3.org/2000/svg">
<path d="M30.344 3.544L17.72 37H12.68L0.0560001 3.544H4.712L15.224 32.392L25.736 3.544H30.344ZM37.3895 6.424C36.5575 6.424 35.8535 6.136 35.2775 5.56C34.7015 4.984 34.4135 4.28 34.4135 3.448C34.4135 2.616 34.7015 1.912 35.2775 1.336C35.8535 0.759998 36.5575 0.471998 37.3895 0.471998C38.1895 0.471998 38.8615 0.759998 39.4055 1.336C39.9815 1.912 40.2695 2.616 40.2695 3.448C40.2695 4.28 39.9815 4.984 39.4055 5.56C38.8615 6.136 38.1895 6.424 37.3895 6.424ZM39.5015 10.696V37H35.1335V10.696H39.5015ZM56.258 37.432C54.242 37.432 52.434 37.096 50.834 36.424C49.234 35.72 47.97 34.76 47.042 33.544C46.114 32.296 45.602 30.872 45.506 29.272H50.018C50.146 30.584 50.754 31.656 51.842 32.488C52.962 33.32 54.418 33.736 56.21 33.736C57.874 33.736 59.186 33.368 60.146 32.632C61.106 31.896 61.586 30.968 61.586 29.848C61.586 28.696 61.074 27.848 60.05 27.304C59.026 26.728 57.442 26.168 55.298 25.624C53.346 25.112 51.746 24.6 50.498 24.088C49.282 23.544 48.226 22.76 47.33 21.736C46.466 20.68 46.034 19.304 46.034 17.608C46.034 16.264 46.434 15.032 47.234 13.912C48.034 12.792 49.17 11.912 50.642 11.272C52.114 10.6 53.794 10.264 55.682 10.264C58.594 10.264 60.946 11 62.738 12.472C64.53 13.944 65.49 15.96 65.618 18.52H61.25C61.154 17.144 60.594 16.04 59.57 15.208C58.578 14.376 57.234 13.96 55.538 13.96C53.97 13.96 52.722 14.296 51.794 14.968C50.866 15.64 50.402 16.52 50.402 17.608C50.402 18.472 50.674 19.192 51.218 19.768C51.794 20.312 52.498 20.76 53.33 21.112C54.194 21.432 55.378 21.8 56.882 22.216C58.77 22.728 60.306 23.24 61.49 23.752C62.674 24.232 63.682 24.968 64.514 25.96C65.378 26.952 65.826 28.248 65.858 29.848C65.858 31.288 65.458 32.584 64.658 33.736C63.858 34.888 62.722 35.8 61.25 36.472C59.81 37.112 58.146 37.432 56.258 37.432ZM81.3361 37.432C79.3201 37.432 77.5121 37.096 75.9121 36.424C74.3121 35.72 73.0481 34.76 72.1201 33.544C71.1921 32.296 70.6801 30.872 70.5841 29.272H75.0961C75.2241 30.584 75.8321 31.656 76.9201 32.488C78.0401 33.32 79.4961 33.736 81.2881 33.736C82.9521 33.736 84.2641 33.368 85.2241 32.632C86.1841 31.896 86.6641 30.968 86.6641 29.848C86.6641 28.696 86.1521 27.848 85.1281 27.304C84.1041 26.728 82.5201 26.168 80.3761 25.624C78.4241 25.112 76.8241 24.6 75.5761 24.088C74.3601 23.544 73.3041 22.76 72.4081 21.736C71.5441 20.68 71.1121 19.304 71.1121 17.608C71.1121 16.264 71.5121 15.032 72.3121 13.912C73.1121 12.792 74.2481 11.912 75.7201 11.272C77.1921 10.6 78.8721 10.264 80.7601 10.264C83.6721 10.264 86.0241 11 87.8161 12.472C89.6081 13.944 90.5681 15.96 90.6961 18.52H86.3281C86.2321 17.144 85.6721 16.04 84.6481 15.208C83.6561 14.376 82.3121 13.96 80.6161 13.96C79.0481 13.96 77.8001 14.296 76.8721 14.968C75.9441 15.64 75.4801 16.52 75.4801 17.608C75.4801 18.472 75.7521 19.192 76.2961 19.768C76.8721 20.312 77.5761 20.76 78.4081 21.112C79.2721 21.432 80.4561 21.8 81.9601 22.216C83.8481 22.728 85.3841 23.24 86.5681 23.752C87.7521 24.232 88.7601 24.968 89.5921 25.96C90.4561 26.952 90.9041 28.248 90.9361 29.848C90.9361 31.288 90.5361 32.584 89.7361 33.736C88.9361 34.888 87.8001 35.8 86.3281 36.472C84.8881 37.112 83.2241 37.432 81.3361 37.432ZM128.811 3.544V7.096H114.267V18.376H126.075V21.928H114.267V37H109.899V3.544H128.811ZM132.455 23.752C132.455 21.064 132.999 18.712 134.087 16.696C135.175 14.648 136.663 13.064 138.551 11.944C140.471 10.824 142.599 10.264 144.935 10.264C147.239 10.264 149.239 10.76 150.935 11.752C152.631 12.744 153.895 13.992 154.727 15.496V10.696H159.143V37H154.727V32.104C153.863 33.64 152.567 34.92 150.839 35.944C149.143 36.936 147.159 37.432 144.887 37.432C142.551 37.432 140.439 36.856 138.551 35.704C136.663 34.552 135.175 32.936 134.087 30.856C132.999 28.776 132.455 26.408 132.455 23.752ZM154.727 23.8C154.727 21.816 154.327 20.088 153.527 18.616C152.727 17.144 151.639 16.024 150.263 15.256C148.919 14.456 147.431 14.056 145.799 14.056C144.167 14.056 142.679 14.44 141.335 15.208C139.991 15.976 138.919 17.096 138.119 18.568C137.319 20.04 136.919 21.768 136.919 23.752C136.919 25.768 137.319 27.528 138.119 29.032C138.919 30.504 139.991 31.64 141.335 32.44C142.679 33.208 144.167 33.592 145.799 33.592C147.431 33.592 148.919 33.208 150.263 32.44C151.639 31.64 152.727 30.504 153.527 29.032C154.327 27.528 154.727 25.784 154.727 23.8ZM175.836 37.432C173.82 37.432 172.012 37.096 170.412 36.424C168.812 35.72 167.548 34.76 166.62 33.544C165.692 32.296 165.18 30.872 165.084 29.272H169.596C169.724 30.584 170.332 31.656 171.42 32.488C172.54 33.32 173.996 33.736 175.788 33.736C177.452 33.736 178.764 33.368 179.724 32.632C180.684 31.896 181.164 30.968 181.164 29.848C181.164 28.696 180.652 27.848 179.628 27.304C178.604 26.728 177.02 26.168 174.876 25.624C172.924 25.112 171.324 24.6 170.076 24.088C168.86 23.544 167.804 22.76 166.908 21.736C166.044 20.68 165.612 19.304 165.612 17.608C165.612 16.264 166.012 15.032 166.812 13.912C167.612 12.792 168.748 11.912 170.22 11.272C171.692 10.6 173.372 10.264 175.26 10.264C178.172 10.264 180.524 11 182.316 12.472C184.108 13.944 185.068 15.96 185.196 18.52H180.828C180.732 17.144 180.172 16.04 179.148 15.208C178.156 14.376 176.812 13.96 175.116 13.96C173.548 13.96 172.3 14.296 171.372 14.968C170.444 15.64 169.98 16.52 169.98 17.608C169.98 18.472 170.252 19.192 170.796 19.768C171.372 20.312 172.076 20.76 172.908 21.112C173.772 21.432 174.956 21.8 176.46 22.216C178.348 22.728 179.884 23.24 181.068 23.752C182.252 24.232 183.26 24.968 184.092 25.96C184.956 26.952 185.404 28.248 185.436 29.848C185.436 31.288 185.036 32.584 184.236 33.736C183.436 34.888 182.3 35.8 180.828 36.472C179.388 37.112 177.724 37.432 175.836 37.432ZM204.658 10.216C206.642 10.216 208.434 10.648 210.034 11.512C211.634 12.344 212.882 13.608 213.778 15.304C214.706 17 215.17 19.064 215.17 21.496V37H210.85V22.12C210.85 19.496 210.194 17.496 208.882 16.12C207.57 14.712 205.778 14.008 203.506 14.008C201.202 14.008 199.362 14.728 197.986 16.168C196.642 17.608 195.97 19.704 195.97 22.456V37H191.602V1.48H195.97V14.44C196.834 13.096 198.018 12.056 199.522 11.32C201.058 10.584 202.77 10.216 204.658 10.216ZM224.561 6.424C223.729 6.424 223.025 6.136 222.449 5.56C221.873 4.984 221.585 4.28 221.585 3.448C221.585 2.616 221.873 1.912 222.449 1.336C223.025 0.759998 223.729 0.471998 224.561 0.471998C225.361 0.471998 226.033 0.759998 226.577 1.336C227.153 1.912 227.441 2.616 227.441 3.448C227.441 4.28 227.153 4.984 226.577 5.56C226.033 6.136 225.361 6.424 224.561 6.424ZM226.673 10.696V37H222.305V10.696H226.673ZM245.59 37.432C243.126 37.432 240.886 36.872 238.87 35.752C236.886 34.632 235.318 33.048 234.166 31C233.046 28.92 232.486 26.52 232.486 23.8C232.486 21.112 233.062 18.744 234.214 16.696C235.398 14.616 236.998 13.032 239.014 11.944C241.03 10.824 243.286 10.264 245.782 10.264C248.278 10.264 250.534 10.824 252.55 11.944C254.566 13.032 256.15 14.6 257.302 16.648C258.486 18.696 259.078 21.08 259.078 23.8C259.078 26.52 258.47 28.92 257.254 31C256.07 33.048 254.454 34.632 252.406 35.752C250.358 36.872 248.086 37.432 245.59 37.432ZM245.59 33.592C247.158 33.592 248.63 33.224 250.006 32.488C251.382 31.752 252.486 30.648 253.318 29.176C254.182 27.704 254.614 25.912 254.614 23.8C254.614 21.688 254.198 19.896 253.366 18.424C252.534 16.952 251.446 15.864 250.102 15.16C248.758 14.424 247.302 14.056 245.734 14.056C244.134 14.056 242.662 14.424 241.318 15.16C240.006 15.864 238.95 16.952 238.15 18.424C237.35 19.896 236.95 21.688 236.95 23.8C236.95 25.944 237.334 27.752 238.102 29.224C238.902 30.696 239.958 31.8 241.27 32.536C242.582 33.24 244.022 33.592 245.59 33.592ZM277.637 10.216C280.837 10.216 283.429 11.192 285.413 13.144C287.397 15.064 288.389 17.848 288.389 21.496V37H284.069V22.12C284.069 19.496 283.413 17.496 282.101 16.12C280.789 14.712 278.997 14.008 276.725 14.008C274.421 14.008 272.581 14.728 271.205 16.168C269.861 17.608 269.189 19.704 269.189 22.456V37H264.821V10.696H269.189V14.44C270.053 13.096 271.221 12.056 272.693 11.32C274.197 10.584 275.845 10.216 277.637 10.216ZM304.836 37.432C302.82 37.432 301.012 37.096 299.412 36.424C297.812 35.72 296.548 34.76 295.62 33.544C294.692 32.296 294.18 30.872 294.084 29.272H298.596C298.724 30.584 299.332 31.656 300.42 32.488C301.54 33.32 302.996 33.736 304.788 33.736C306.452 33.736 307.764 33.368 308.724 32.632C309.684 31.896 310.164 30.968 310.164 29.848C310.164 28.696 309.652 27.848 308.628 27.304C307.604 26.728 306.02 26.168 303.876 25.624C301.924 25.112 300.324 24.6 299.076 24.088C297.86 23.544 296.804 22.76 295.908 21.736C295.044 20.68 294.612 19.304 294.612 17.608C294.612 16.264 295.012 15.032 295.812 13.912C296.612 12.792 297.748 11.912 299.22 11.272C300.692 10.6 302.372 10.264 304.26 10.264C307.172 10.264 309.524 11 311.316 12.472C313.108 13.944 314.068 15.96 314.196 18.52H309.828C309.732 17.144 309.172 16.04 308.148 15.208C307.156 14.376 305.812 13.96 304.116 13.96C302.548 13.96 301.3 14.296 300.372 14.968C299.444 15.64 298.98 16.52 298.98 17.608C298.98 18.472 299.252 19.192 299.796 19.768C300.372 20.312 301.076 20.76 301.908 21.112C302.772 21.432 303.956 21.8 305.46 22.216C307.348 22.728 308.884 23.24 310.068 23.752C311.252 24.232 312.26 24.968 313.092 25.96C313.956 26.952 314.404 28.248 314.436 29.848C314.436 31.288 314.036 32.584 313.236 33.736C312.436 34.888 311.3 35.8 309.828 36.472C308.388 37.112 306.724 37.432 304.836 37.432Z" fill="black"/>
</svg>
